<svg xmlns="http://www.w3.org/2000/svg" data-name="Camada 1" viewBox="0 0 100 100" id="sword"><path d="M96.33,78.6A12.54,12.54,0,0,0,88.42,75L77,63.54,91.48,49,80.22,33.77l-10,7.59L33.35,0,1.63,1.62,0,33.34l41.37,36.9-7.6,10L49.05,91.47,63.54,77,75,88.39A12.54,12.54,0,1,0,96.33,78.6ZM6.14,30.78,7.34,7.34l23.44-1.2L65.45,45,53.84,53.84,45,65.44Zm53.16,42-2.88,2.87-8,8L42.24,79l3.62-4.76,3.64-4.79,8.62-11.33L69.45,49.5l4.79-3.64L79,42.23l4.58,6.22Zm13.44-5,8.69,8.7a12.23,12.23,0,0,0-2.84,2.12,12.56,12.56,0,0,0-2.12,2.82l-8.68-8.69ZM92.08,92.09a6.55,6.55,0,0,1-9.25,0h0a6.55,6.55,0,1,1,9.25,0Z"></path></svg>