<?xml version="1.0" encoding="UTF-8"?>
<svg height="24pt" viewBox="0 0 213 24" width="213pt" xmlns="http://www.w3.org/2000/svg">
 <g id="Eurogamer_logo" fill="#0084cc">
  <path d="m0 23.3672v-22.9609h16.7695v5.15234h-10.8594v3.58594h10.6328v5.15234h-10.6328v3.89062h10.8594v5.15234h-16.7695z"/>
  <path d="m19.8359 14.2969v-13.8906h6.00781v13.6641c0 2.73047 1.63672 4.67188 4.82812 4.67188 3.14453 0 4.80469-1.96875 4.80469-4.67188v-13.6641h5.95703v13.8398c0 5.71094-3.41797 9.75-10.7617 9.75-7.33984 0-10.8359-4.03906-10.8359-9.69922z"/>
  <path d="m57.2734 23.3672-3.84766-7.70313h-3.01562v7.70313h-5.88281v-22.9609h11.4375c5.07812 0 7.94531 3.38672 7.94531 7.65234 0 3.99219-2.38672 6.14062-4.55078 6.89844l4.65234 8.43359h-6.73828zm.62891-15.3594c0-1.58984-1.25781-2.44922-2.84375-2.44922h-4.64844v4.92578h4.64844c1.58594 0 2.84375-.85938 2.84375-2.47656z"/>
  <path d="m125.23.40625-8.59766 22.9844h6.6875l1.12891-3.30859h9.02734l1.13281 3.30859h6.6875l-8.59766-22.9844zm.82813 14.5234 2.91797-8.63672 2.89063 8.63672z"/>
  <path d="m156.961 13.1094-4.80469-12.7031h-8.19531v22.9844h5.91016v-15.1797l5.78125 15.1797h2.61328l5.75781-15.1797v15.1797h5.91016v-22.9844h-8.19922z"/>
  <path d="m173.301 23.3906h16.7695v-5.15234h-10.8594v-3.89062h10.6328v-5.17578h-10.6328v-3.58594h10.8594v-5.17969h-16.7695z"/>
  <path d="m208.348 14.957c2.16406-.75781 4.55078-2.90625 4.55078-6.89844 0-4.26562-2.89063-7.65234-7.96875-7.65234h-11.4648v22.9844h5.91016v-7.72656h3.01562l3.84766 7.72656h6.76172zm-4.27344-4.44531h-4.67578v-4.92578h4.67578c1.58594 0 2.83984.85937 2.83984 2.44922 0 1.61719-1.28125 2.47656-2.83984 2.47656z"/>
  <path d="m116.832 10.5859h-12.8477v5.10156h6.10938c-.95313 1.86719-2.53906 2.82812-4.77734 2.82812-3.99609 0-6.8125-2.75391-6.8125-6.71875 0-3.66016 2.71484-6.46484 6.28516-6.46484 2.0625 0 3.77344.88281 5.00391 2.625l5.00391-2.60156c-2.03516-3.40625-5.60547-5.35156-10.0078-5.35156-6.71094 0-12.0938 5.30469-12.0938 11.9453 0 6.71875 5.38281 12.0234 12.1211 12.0234 6.86328 0 12.0156-5.35547 12.0156-12.5547z"/>
  <path d="m77.9375 23.9727c-6.71094 0-12.043-5.15234-12.043-11.9219 0-6.84375 5.25781-12.0234 12.043-12.0234 6.73828 0 12.1719 5.15234 12.1719 11.9727s-5.45703 11.9727-12.1719 11.9727zm.07813-18.7656c-3.74609 0-6.26172 3.10547-6.26172 6.74219 0 3.6875 2.51562 6.84375 6.33594 6.84375 3.67188 0 6.18359-3.17969 6.18359-6.74219 0-3.63672-2.48828-6.84375-6.25781-6.84375z"/>
 </g>
</svg>
